<svg xmlns="http://www.w3.org/2000/svg" viewBox="0 0 675 1200">
  <defs>
    <linearGradient id="c" x1="0" x2="675" y1="600" y2="600" gradientUnits="userSpaceOnUse">
      <stop offset="0"/>
      <stop offset=".05" stop-color="#0f080d"/>
      <stop offset=".08" stop-color="#0e0a12"/>
      <stop offset=".22" stop-color="#0b1327"/>
      <stop offset=".36" stop-color="#0a1833"/>
      <stop offset=".5" stop-color="#0a1a38"/>
      <stop offset=".64" stop-color="#0a1833"/>
      <stop offset=".78" stop-color="#0b1327"/>
      <stop offset=".92" stop-color="#0e0a12"/>
      <stop offset=".95" stop-color="#0f080d"/>
      <stop offset=".98" stop-color="#0b0609"/>
      <stop offset="1"/>
      <stop offset="1"/>
    </linearGradient>
    <linearGradient id="j" x1="337.5" x2="337.5" y1="554.23" y2="248.98" gradientUnits="userSpaceOnUse">
      <stop offset="0" stop-color="#03030a"/>
      <stop offset=".18" stop-color="#0e1526"/>
      <stop offset=".34" stop-color="#03030a"/>
      <stop offset=".51" stop-color="#151c2e"/>
      <stop offset=".74" stop-color="#090d17"/>
      <stop offset=".91" stop-color="#2a3b66"/>
      <stop offset="1" stop-color="#425fa3"/>
    </linearGradient>
    <linearGradient id="k" x1="337.5" x2="337.5" y1="537.44" y2="265.76" gradientUnits="userSpaceOnUse">
      <stop offset="0" stop-color="#03030a"/>
      <stop offset=".09" stop-color="#04050e"/>
      <stop offset=".19" stop-color="#090d1b"/>
      <stop offset=".29" stop-color="#121b31"/>
      <stop offset=".32" stop-color="#16213a"/>
      <stop offset=".46" stop-color="#10192c"/>
      <stop offset=".62" stop-color="#0c1321"/>
      <stop offset=".73" stop-color="#0f1728"/>
      <stop offset=".9" stop-color="#18233d"/>
      <stop offset=".91" stop-color="#192540"/>
      <stop offset="1" stop-color="#121a2e"/>
    </linearGradient>
    <linearGradient id="l" x1="337.5" x2="337.5" y1="537.69" y2="265.51" gradientUnits="userSpaceOnUse">
      <stop offset=".1" stop-color="#b0c7ff" stop-opacity=".05"/>
      <stop offset=".4" stop-color="#edf2ff" stop-opacity=".05"/>
      <stop offset=".6" stop-color="#f0f4ff" stop-opacity=".05"/>
      <stop offset="1" stop-color="#fff" stop-opacity=".2"/>
    </linearGradient>
    <linearGradient id="o" x1="337.5" x2="337.5" y1="473.65" y2="325.14" gradientUnits="userSpaceOnUse">
      <stop offset=".1" stop-color="#b0c7ff" stop-opacity=".1"/>
      <stop offset=".4" stop-color="#f0f4ff" stop-opacity=".05"/>
      <stop offset=".6" stop-color="#edf2ff" stop-opacity=".05"/>
      <stop offset=".9" stop-color="#b0c7ff" stop-opacity=".3"/>
    </linearGradient>
    <linearGradient id="p" x1="337.5" x2="337.5" y1="451.44" y2="348.2" gradientUnits="userSpaceOnUse">
      <stop offset="0" stop-color="#636d85"/>
      <stop offset=".5" stop-color="#848b9e"/>
      <stop offset="1" stop-color="#636d85"/>
    </linearGradient>
    <linearGradient id="r" x1="337.92" x2="337.92" y1="410.45" y2="390.19" gradientUnits="userSpaceOnUse">
      <stop offset="0" stop-color="#140a11"/>
      <stop offset=".51" stop-color="#143558"/>
      <stop offset=".77" stop-color="#4467bd"/>
      <stop offset="1" stop-color="#acb4bd"/>
    </linearGradient>
    <filter id="e" width="636.24" height="686.88" x="19.44" y="56.22" filterUnits="userSpaceOnUse">
      <feOffset/>
      <feGaussianBlur result="blur" stdDeviation="50"/>
      <feFlood flood-color="#518be5" flood-opacity=".5"/>
      <feComposite in2="blur" operator="in"/>
      <feComposite in="SourceGraphic"/>
    </filter>
    <filter id="a" width="340.08" height="390.72" x="167.52" y="204.3" color-interpolation-filters="sRGB" filterUnits="userSpaceOnUse">
      <feFlood flood-color="#fff" result="bg"/>
      <feBlend in="SourceGraphic" in2="bg"/>
    </filter>
    <filter id="b" width="324.72" height="375.36" x="175.2" y="211.98" color-interpolation-filters="sRGB" filterUnits="userSpaceOnUse">
      <feColorMatrix result="cm" values="-1 0 0 0 1 0 -1 0 0 1 0 0 -1 0 1 0 0 0 1 0"/>
    </filter>
    <filter id="m" width="158.16" height="158.16" x="258.43" y="320.41" filterUnits="userSpaceOnUse">
      <feOffset/>
      <feGaussianBlur result="blur-2" stdDeviation="4.42"/>
      <feFlood flood-color="#000" flood-opacity="1"/>
      <feComposite in2="blur-2" operator="in"/>
      <feComposite in="SourceGraphic"/>
    </filter>
    <filter id="n" width="175.44" height="175.2" x="249.79" y="311.85" filterUnits="userSpaceOnUse">
      <feOffset/>
      <feGaussianBlur result="blur-3" stdDeviation="4.42"/>
      <feFlood flood-color="#000" flood-opacity="1"/>
      <feComposite in2="blur-3" operator="in"/>
      <feComposite in="SourceGraphic"/>
    </filter>
    <filter id="q" width="130.32" height="130.08" x="272.35" y="334.81" filterUnits="userSpaceOnUse">
      <feOffset/>
      <feGaussianBlur result="blur-4" stdDeviation="4.42"/>
      <feFlood flood-color="#104cdb" flood-opacity=".3"/>
      <feComposite in2="blur-4" operator="in"/>
      <feComposite in="SourceGraphic"/>
    </filter>
    <radialGradient id="d" cx="337.5" cy="600" r="486.78" fx="337.5" fy="600" gradientTransform="matrix(1 0 0 3 0 -1199.99)" gradientUnits="userSpaceOnUse">
      <stop offset="0" stop-opacity="0"/>
      <stop offset="1"/>
    </radialGradient>
    <radialGradient id="g" cx="337.5" cy="399.63" r="173.35" fx="337.5" fy="399.63" gradientTransform="matrix(1 0 0 .8 0 79.93)" gradientUnits="userSpaceOnUse">
      <stop offset="0"/>
      <stop offset="1" stop-color="#0a0000"/>
    </radialGradient>
    <radialGradient id="i" cx="337.5" cy="266.57" r="119.23" fx="337.5" fy="266.57" gradientUnits="userSpaceOnUse">
      <stop offset=".29" stop-color="#fff"/>
      <stop offset=".82" stop-color="#b0c7ff"/>
    </radialGradient>
    <mask id="f" width="340.08" height="390.72" x="167.52" y="204.3" maskUnits="userSpaceOnUse">
      <g filter="url(#a)"/>
    </mask>
    <mask id="h" width="324.72" height="375.36" x="175.2" y="211.98" maskUnits="userSpaceOnUse">
      <g filter="url(#b)"/>
    </mask>
  </defs>
  <path fill="url(#c)" d="M0 0h675v1200H0z" data-name="color overlay (animate opacity in and out)" opacity=".4"/>
  <path fill="url(#d)" d="M0 0h675v1200H0z"/>
  <g filter="url(#e)">
    <path fill="#253b70" d="M337.5 585.16v7.73a32.5 32.5 0 0 1-19.66-6.55L205.79 502.3a91.1 91.1 0 0 1-36.27-72.54V317.64c0-.22 0-.44.02-.65a33.76 33.76 0 0 1 .37-4.27 32.63 32.63 0 0 1 15.92-23.4l135.23-78.52a32.78 32.78 0 0 1 32.9 0l135.22 78.52a32.96 32.96 0 0 1 16.29 27.65l.02.68v112.12a91.1 91.1 0 0 1-36.27 72.54l-112.05 84.04a32.47 32.47 0 0 1-19.65 6.55v-7.73Z"/>
    <g mask="url(#f)">
      <path fill="#050000" d="M337.5 585.16v7.73a32.5 32.5 0 0 1-19.66-6.55L205.79 502.3a91.1 91.1 0 0 1-36.27-72.54V317.64c0-.22 0-.44.02-.65a33.76 33.76 0 0 1 .37-4.27 32.63 32.63 0 0 1 15.92-23.4l135.23-78.52a32.78 32.78 0 0 1 32.9 0l135.22 78.52a32.96 32.96 0 0 1 16.29 27.65l.02.68v112.12a91.1 91.1 0 0 1-36.27 72.54l-112.05 84.04a32.47 32.47 0 0 1-19.65 6.55v-7.73Z"/>
    </g>
    <path fill="url(#g)" d="M497.73 317.12A25.01 25.01 0 0 0 485.29 296l-135.22-78.52a25.1 25.1 0 0 0-25.14 0L189.7 296a25.02 25.02 0 0 0-12.16 17.87l-.08.46a25.8 25.8 0 0 0-.2 2.79l-.02.52v112.12a82.93 82.93 0 0 0 33.18 66.36l112.05 84.04a25.05 25.05 0 0 0 30.04 0l112.05-84.04a82.95 82.95 0 0 0 33.18-66.36V317.64l-.02-.52Z"/>
    <g mask="url(#h)">
      <path fill="#0b1e49" d="M497.73 317.12A25.01 25.01 0 0 0 485.29 296l-135.22-78.52a25.1 25.1 0 0 0-25.14 0L189.7 296a25.02 25.02 0 0 0-12.16 17.87l-.08.46a25.8 25.8 0 0 0-.2 2.79l-.02.52v112.12a82.93 82.93 0 0 0 33.18 66.36l112.05 84.04a25.05 25.05 0 0 0 30.04 0l112.05-84.04a82.95 82.95 0 0 0 33.18-66.36V317.64l-.02-.52Z" opacity=".3"/>
    </g>
    <path fill="url(#i)" d="M497.73 317.12A25.01 25.01 0 0 0 485.29 296l-135.22-78.52a25.1 25.1 0 0 0-25.14 0L189.7 296a25.02 25.02 0 0 0-12.16 17.87l-.08.46a25.8 25.8 0 0 0-.2 2.79l-.02.52v1.4l.02-.52c.02-.94.08-1.87.2-2.79l.08-.46a25 25 0 0 1 12.16-17.87l135.23-78.52a25.1 25.1 0 0 1 25.14 0l135.22 78.52a25.02 25.02 0 0 1 12.44 21.12l.02.52v-1.4l-.02-.52Z" opacity=".3"/>
  </g>
  <path fill="url(#j)" d="M337.5 554.23a28.6 28.6 0 0 1-17.04-5.68l-93.47-74.52a55.63 55.63 0 0 1-22.14-44.28v-85.32a44.1 44.1 0 0 1 21.9-38.03l88.67-51.49a44.02 44.02 0 0 1 44.16 0l88.67 51.49a44.12 44.12 0 0 1 21.9 38.03v85.32a55.63 55.63 0 0 1-22.14 44.28l-93.47 74.52a28.58 28.58 0 0 1-17.04 5.68Z"/>
  <path fill="none" stroke="#03030a" stroke-miterlimit="10" stroke-width="1.1" d="M337.5 554.23a28.6 28.6 0 0 1-17.04-5.68l-93.47-74.52a55.63 55.63 0 0 1-22.14-44.28v-85.32a44.1 44.1 0 0 1 21.9-38.03l88.67-51.49a44.02 44.02 0 0 1 44.16 0l88.67 51.49a44.12 44.12 0 0 1 21.9 38.03v85.32a55.63 55.63 0 0 1-22.14 44.28l-93.47 74.52a28.58 28.58 0 0 1-17.04 5.68Z"/>
  <path fill="url(#k)" d="M337.5 537.44c-5.43 0-10.82-1.8-15.17-5.06l-83.19-66.32a49.49 49.49 0 0 1-19.7-39.41v-75.93c0-13.9 7.47-26.87 19.49-33.85l78.92-45.82a39.2 39.2 0 0 1 39.3 0l78.92 45.82a39.27 39.27 0 0 1 19.49 33.85v75.93a49.52 49.52 0 0 1-19.7 39.41l-83.19 66.32a25.44 25.44 0 0 1-15.17 5.06Z"/>
  <path fill="none" stroke="url(#l)" stroke-miterlimit="10" stroke-width=".5" d="M337.5 537.44c-5.43 0-10.82-1.8-15.17-5.06l-83.19-66.32a49.49 49.49 0 0 1-19.7-39.41v-75.93c0-13.9 7.47-26.87 19.49-33.85l78.92-45.82a39.2 39.2 0 0 1 39.3 0l78.92 45.82a39.27 39.27 0 0 1 19.49 33.85v75.93a49.52 49.52 0 0 1-19.7 39.41l-83.19 66.32a25.44 25.44 0 0 1-15.17 5.06Z"/>
  <circle cx="337.5" cy="399.4" r="65.1" fill="#0f0e0e" stroke="#000" stroke-miterlimit="10" stroke-width="1.1" filter="url(#m)"/>
  <circle cx="337.5" cy="399.4" r="74" fill="none" stroke="url(#o)" stroke-miterlimit="10" stroke-width=".5" filter="url(#n)"/>
  <g data-name="SEAS Logo">
    <path fill="url(#p)" d="M335.18 348.29c-43.54 2.48-65.23 53.58-36.09 86.2 24.34 27.24 69.11 20.53 84.97-12.08 16.93-34.8-10.03-76.33-48.89-74.12Zm10.69 24.77a27.97 27.97 0 0 0-25.23 4.98c-2.32 1.8-3.93 3.75-5.77 5.99-2.26-.34-4.41-1.18-6.6-1.82l8.68 15.72 15.1-9.14c0-.49-4.25-1.21-4.97-1.45-.35-.12-.77-.15-.82-.63.43.04.68-.23.97-.47 7.85-6.32 18.76-4.83 25.06 2.88 2.12 2.59 2.97 5.5 3.85 8.67l17.86 4.95c5.78 2.31 4.72 7.42 2.88 12.2-6.64 17.26-24.95 28.46-43.4 26.31-12.28-1.43-24.12-8.56-30.39-19.22-.74-.52-5.63 3.31-6.08 2.86l4.82-18.28 18.32 4.81-5.45 3.72a26.56 26.56 0 0 0 10.05 9.49c12.58 6.61 28.33 2.9 36.42-8.69l6.87 1.58-8.69-15.38-15.09 8.65c-.57.43.06.56.48.64 1.86.32 3.7 1.24 5.63 1.29.47.43-1.89 2.14-2.27 2.39-9.74 6.44-23.1 1.85-26.82-9.12-.23-.68-.67-3.33-1-3.55-3.39-.86-6.73-2-10.09-3.03-2.63-.8-6.23-1.44-8.69-2.56a7.01 7.01 0 0 1-3.84-5.49c-.25-2.62 2.73-9.12 4.1-11.58a41.68 41.68 0 0 1 45.77-20.21c10.39 2.41 20.34 9.27 25.66 18.5l5.77-2.88c.17.18-.97 4.18-1.14 4.82-.22.87-.48 1.62-.71 2.48-.99 3.66-1.92 7.35-2.98 10.99l-18.32-4.81 1.39-1.02 4.39-2.7a27.46 27.46 0 0 0-15.73-11.84Z" filter="url(#q)"/>
    <path fill="url(#r)" d="M336.77 390.29c4.5-.78 7.8 3.32 5.94 7.53-.42.94-1.57 1.9-1.67 2.5-.49 2.86 1.57 9.91-3.05 10.13s-2.58-7.35-3.05-10.13c-.13-.77-1.09-1.26-1.56-1.97-1.94-2.98-.13-7.45 3.4-8.06Z"/>
  </g>
</svg>
